<svg width="120" height="104" viewBox="0 0 120 104" fill="none" xmlns="http://www.w3.org/2000/svg">
<g filter="url(#filter0_d)">
<path d="M117.626 23.8353C112.386 10.5022 96.245 2.50657 82.5739 7.79779C66.9689 13.8374 72.1429 38.6585 57.9687 43.6776C50.3119 46.3888 38.9931 36.2611 31.2573 34.7081C17.0025 31.8464 4.09788 41.9046 0.920245 55.8332C-2.32161 70.0432 2.87797 89.0228 18.4905 92.8797C37.0881 97.4739 46.7755 80.7558 62.3768 75.9553C78.3869 71.029 96.1882 82.6636 109.442 68.5079C119.234 58.0499 122.815 37.038 117.626 23.8353Z" fill="url(#paint0_linear)"/>
<path opacity="0.1" d="M111.76 29.697C111.76 20.4397 104.256 12.9353 94.9988 12.9353C87.827 12.9353 81.71 17.4411 79.3168 23.7751H18.7062C16.1173 23.7751 14.0187 25.8736 14.0187 28.4625V80.3552C14.0187 82.9441 16.1173 85.0427 18.7062 85.0427H101.294C103.882 85.0427 105.981 82.9441 105.981 80.3552V42.3539C109.52 39.2805 111.76 34.752 111.76 29.697Z" fill="#2626BC"/>
<path d="M101.294 79.1834H18.7065C16.1176 79.1834 14.019 77.0848 14.019 74.4959V22.6032C14.019 20.0143 16.1176 17.9157 18.7065 17.9157H101.294C103.883 17.9157 105.981 20.0143 105.981 22.6032V74.4959C105.982 77.0848 103.883 79.1834 101.294 79.1834Z" fill="#D8DCEC" stroke="#2626BC" stroke-width="2.24999"/>
<path d="M105.982 22.6043V42.4089C103.04 44.9613 99.2011 46.5081 94.9988 46.5081C85.741 46.5081 78.2364 39.0035 78.2364 29.7481C78.2364 25.1309 80.1044 20.9473 83.1254 17.9169H101.294C103.882 17.9169 105.982 20.0145 105.982 22.6043Z" fill="#8399FE"/>
<path d="M61.4276 40.2715L105.981 74.4959C105.981 77.0848 103.883 79.1834 101.294 79.1834H18.706C16.1171 79.1834 14.0185 77.0848 14.0185 74.4959L58.572 40.2715C59.4141 39.6246 60.5855 39.6246 61.4276 40.2715Z" fill="#C5CFFF" stroke="#2626BC" stroke-width="2.24999"/>
<path d="M58.5725 56.8279L14.019 22.6032C14.019 20.0143 16.1176 17.9157 18.7065 17.9157H101.294C103.883 17.9157 105.981 20.0143 105.981 22.6032L61.4281 56.8279C60.586 57.4745 59.4146 57.4745 58.5725 56.8279Z" fill="#E6EAFF" stroke="#2626BC" stroke-width="2.24999"/>
<path d="M86.9406 72.9465H79.4092C78.7621 72.9465 78.2374 72.4217 78.2374 71.7746V66.5823C78.2374 65.9352 78.7621 65.4104 79.4092 65.4104H86.9406C87.5877 65.4104 88.1125 65.9352 88.1125 66.5823V71.7746C88.1125 72.422 87.5877 72.9465 86.9406 72.9465Z" fill="#00ECA2"/>
<path d="M73.0945 68.1694H66.5712C65.9239 68.1694 65.3994 67.6447 65.3994 66.9976C65.3994 66.3505 65.9239 65.8257 66.5712 65.8257H73.0945C73.7419 65.8257 74.2664 66.3505 74.2664 66.9976C74.2664 67.6447 73.7419 68.1694 73.0945 68.1694Z" fill="white"/>
<path d="M73.0945 72.9465H50.165C49.5177 72.9465 48.9932 72.4217 48.9932 71.7746C48.9932 71.1275 49.5177 70.6027 50.165 70.6027H73.0945C73.7419 70.6027 74.2664 71.1275 74.2664 71.7746C74.2664 72.4217 73.7419 72.9465 73.0945 72.9465Z" fill="white"/>
<path d="M116.228 23.8593C116.228 35.6341 106.736 45.1698 95.0386 45.1698C83.3415 45.1698 73.8495 35.6341 73.8495 23.8593C73.8495 12.0845 83.3415 2.54874 95.0386 2.54874C106.736 2.54874 116.228 12.0845 116.228 23.8593Z" fill="#00ECA2" stroke="#2626BC" stroke-width="2.07276"/>
<path d="M85.8883 16.6813L88.9103 23.8592L85.8883 31.0372C85.3752 32.2562 86.6132 33.4776 87.8355 32.9585L106.081 25.2125C107.279 24.7036 107.279 23.0148 106.081 22.506L87.8355 14.76C86.6132 14.2408 85.3752 15.4622 85.8883 16.6813Z" fill="white"/>
<path d="M95.7572 25.2504L86.6942 29.1619L88.8894 23.8593L86.6916 18.5566L95.7572 22.4681C96.8878 22.9566 96.8878 24.7649 95.7572 25.2504Z" fill="#FFDBED"/>
<path d="M67.225 6.981C66.3546 6.981 65.4843 6.64983 64.822 5.98725C63.4968 4.66211 63.4968 2.5061 64.822 1.18119C66.1464 -0.143494 68.3029 -0.143963 69.6278 1.18119C70.953 2.50634 70.953 4.66234 69.6278 5.98725C68.9655 6.64983 68.0953 6.981 67.225 6.981ZM67.225 2.53001C66.955 2.53001 66.6848 2.63266 66.479 2.83844C66.0679 3.24953 66.0679 3.91867 66.479 4.33C66.8906 4.74109 67.559 4.74132 67.9706 4.33C68.3817 3.91891 68.3817 3.24977 67.9706 2.83844C67.765 2.6329 67.4948 2.53001 67.225 2.53001Z" fill="#A8A8FF"/>
<path d="M51.2196 95.4908C50.3494 95.4908 49.479 95.1594 48.8166 94.4971C47.4915 93.1719 47.4915 91.0159 48.8166 89.691C50.1413 88.3661 52.298 88.3661 53.6227 89.691C54.9478 91.0162 54.9478 93.1722 53.6227 94.4971C52.9603 95.1597 52.0899 95.4908 51.2196 95.4908ZM51.2196 91.0398C50.9496 91.0398 50.6794 91.1425 50.4736 91.3483C50.0625 91.7594 50.0625 92.4285 50.4736 92.8398C50.8852 93.2512 51.5539 93.2512 51.9654 92.8398C52.3765 92.4287 52.3765 91.7596 51.9654 91.3483C51.7599 91.1427 51.4896 91.0398 51.2196 91.0398Z" fill="#A8A8FF"/>
<path d="M58.7763 9.99879C58.4765 9.99879 58.1763 9.88442 57.9478 9.65567L56.5497 8.25787L55.1517 9.65567C54.6944 10.1132 53.9519 10.1132 53.4947 9.65567C53.0369 9.19794 53.0369 8.45591 53.4947 7.99841L55.7212 5.77186C56.1785 5.31437 56.921 5.31437 57.3782 5.77186L59.6048 7.99841C60.0625 8.45615 60.0625 9.19817 59.6048 9.65567C59.3763 9.88419 59.0763 9.99879 58.7763 9.99879Z" fill="#FF7EB8"/>
<path d="M103.065 91.0394C102.765 91.0394 102.465 90.925 102.237 90.6963L100.838 89.2985L99.4404 90.6963C98.9832 91.1538 98.2407 91.1538 97.7834 90.6963C97.3257 90.2385 97.3257 89.4965 97.7834 89.039L100.01 86.8125C100.467 86.355 101.21 86.355 101.667 86.8125L103.894 89.039C104.351 89.4967 104.351 90.2388 103.894 90.6963C103.665 90.9248 103.365 91.0394 103.065 91.0394Z" fill="#FF7EB8"/>
<path d="M41.9258 92.1527C41.6261 92.1527 41.3258 92.0383 41.0973 91.8095L39.6993 90.4117L38.3012 91.8095C37.844 92.267 37.1015 92.267 36.6442 91.8095C36.1865 91.3518 36.1865 90.6098 36.6442 90.1523L38.8708 87.9257C39.328 87.4682 40.0705 87.4682 40.5278 87.9257L42.7543 90.1523C43.2121 90.61 43.2121 91.352 42.7543 91.8095C42.5256 92.0381 42.2256 92.1527 41.9258 92.1527Z" fill="#6583FE"/>
</g>
<defs>
<filter id="filter0_d" x="-4" y="0.1875" width="127.999" height="103.303" filterUnits="userSpaceOnUse" color-interpolation-filters="sRGB">
<feFlood flood-opacity="0" result="BackgroundImageFix"/>
<feColorMatrix in="SourceAlpha" type="matrix" values="0 0 0 0 0 0 0 0 0 0 0 0 0 0 0 0 0 0 127 0"/>
<feOffset dy="4"/>
<feGaussianBlur stdDeviation="2"/>
<feColorMatrix type="matrix" values="0 0 0 0 0 0 0 0 0 0 0 0 0 0 0 0 0 0 0.25 0"/>
<feBlend mode="normal" in2="BackgroundImageFix" result="effect1_dropShadow"/>
<feBlend mode="normal" in="SourceGraphic" in2="effect1_dropShadow" result="shape"/>
</filter>
<linearGradient id="paint0_linear" x1="101.328" y1="105.646" x2="46.4844" y2="32.9904" gradientUnits="userSpaceOnUse">
<stop stop-color="#4B4B4B"/>
<stop offset="0.5834" stop-color="#393939"/>
<stop offset="0.997" stop-color="#8A8A8A"/>
</linearGradient>
</defs>
</svg>
