<svg width="120" height="120" viewBox="0 0 120 120" fill="none" xmlns="http://www.w3.org/2000/svg">
<path d="M117.626 35.8353C112.386 22.5022 96.245 14.5066 82.5739 19.7978C66.9689 25.8374 72.1429 50.6585 57.9687 55.6776C50.3119 58.3888 38.9931 48.2611 31.2573 46.7081C17.0025 43.8464 4.09788 53.9046 0.920245 67.8332C-2.32161 82.0432 2.87797 101.023 18.4905 104.88C37.0881 109.474 46.7755 92.7558 62.3768 87.9553C78.3869 83.029 96.1882 94.6636 109.442 80.5079C119.234 70.0499 122.815 49.038 117.626 35.8353Z" fill="url(#paint0_linear)"/>
<path opacity="0.1" d="M111.76 41.697C111.76 32.4397 104.256 24.9353 94.9988 24.9353C87.827 24.9353 81.71 29.4411 79.3168 35.7751H18.7062C16.1173 35.7751 14.0187 37.8736 14.0187 40.4625V92.3552C14.0187 94.9441 16.1173 97.0427 18.7062 97.0427H101.294C103.882 97.0427 105.981 94.9441 105.981 92.3552V54.3539C109.52 51.2805 111.76 46.752 111.76 41.697Z" fill="#2626BC"/>
<path d="M101.294 91.1834H18.7065C16.1176 91.1834 14.019 89.0848 14.019 86.4959V34.6032C14.019 32.0143 16.1176 29.9157 18.7065 29.9157H101.294C103.883 29.9157 105.981 32.0143 105.981 34.6032V86.4959C105.982 89.0848 103.883 91.1834 101.294 91.1834Z" fill="#D8DCEC" stroke="#2626BC" stroke-width="2.24999"/>
<path d="M105.982 34.6043V54.4089C103.04 56.9613 99.2011 58.5081 94.9988 58.5081C85.741 58.5081 78.2364 51.0035 78.2364 41.7481C78.2364 37.1309 80.1044 32.9473 83.1254 29.9169H101.294C103.882 29.9169 105.982 32.0145 105.982 34.6043Z" fill="#8399FE"/>
<path d="M61.4276 52.2715L105.981 86.4959C105.981 89.0848 103.883 91.1834 101.294 91.1834H18.706C16.1171 91.1834 14.0185 89.0848 14.0185 86.4959L58.572 52.2715C59.4141 51.6246 60.5855 51.6246 61.4276 52.2715Z" fill="#C5CFFF" stroke="#2626BC" stroke-width="2.24999"/>
<path d="M58.5725 68.8279L14.019 34.6032C14.019 32.0143 16.1176 29.9157 18.7065 29.9157H101.294C103.883 29.9157 105.981 32.0143 105.981 34.6032L61.4281 68.8279C60.586 69.4745 59.4146 69.4745 58.5725 68.8279Z" fill="#E6EAFF" stroke="#2626BC" stroke-width="2.24999"/>
<path d="M86.9406 84.9465H79.4092C78.7621 84.9465 78.2374 84.4217 78.2374 83.7746V78.5823C78.2374 77.9352 78.7621 77.4104 79.4092 77.4104H86.9406C87.5877 77.4104 88.1125 77.9352 88.1125 78.5823V83.7746C88.1125 84.422 87.5877 84.9465 86.9406 84.9465Z" fill="#00ECA2"/>
<path d="M73.0945 80.1694H66.5712C65.9239 80.1694 65.3994 79.6447 65.3994 78.9976C65.3994 78.3505 65.9239 77.8257 66.5712 77.8257H73.0945C73.7419 77.8257 74.2664 78.3505 74.2664 78.9976C74.2664 79.6447 73.7419 80.1694 73.0945 80.1694Z" fill="white"/>
<path d="M73.0945 84.9465H50.165C49.5177 84.9465 48.9932 84.4217 48.9932 83.7746C48.9932 83.1275 49.5177 82.6027 50.165 82.6027H73.0945C73.7419 82.6027 74.2664 83.1275 74.2664 83.7746C74.2664 84.4217 73.7419 84.9465 73.0945 84.9465Z" fill="white"/>
<path d="M116.228 35.8593C116.228 47.6341 106.736 57.1698 95.0386 57.1698C83.3415 57.1698 73.8495 47.6341 73.8495 35.8593C73.8495 24.0845 83.3415 14.5487 95.0386 14.5487C106.736 14.5487 116.228 24.0845 116.228 35.8593Z" fill="#00ECA2" stroke="#2626BC" stroke-width="2.07276"/>
<path d="M85.8883 28.6813L88.9103 35.8592L85.8883 43.0372C85.3752 44.2562 86.6132 45.4776 87.8355 44.9585L106.081 37.2125C107.279 36.7036 107.279 35.0148 106.081 34.506L87.8355 26.76C86.6132 26.2408 85.3752 27.4622 85.8883 28.6813Z" fill="white"/>
<path d="M95.7572 37.2504L86.6942 41.1619L88.8894 35.8593L86.6916 30.5566L95.7572 34.4681C96.8878 34.9566 96.8878 36.7649 95.7572 37.2504Z" fill="#FFDBED"/>
<path d="M67.225 18.981C66.3546 18.981 65.4843 18.6498 64.822 17.9873C63.4968 16.6621 63.4968 14.5061 64.822 13.1812C66.1464 11.8565 68.3029 11.856 69.6278 13.1812C70.953 14.5063 70.953 16.6623 69.6278 17.9873C68.9655 18.6498 68.0953 18.981 67.225 18.981ZM67.225 14.53C66.955 14.53 66.6848 14.6327 66.479 14.8384C66.0679 15.2495 66.0679 15.9187 66.479 16.33C66.8906 16.7411 67.559 16.7413 67.9706 16.33C68.3817 15.9189 68.3817 15.2498 67.9706 14.8384C67.765 14.6329 67.4948 14.53 67.225 14.53Z" fill="#A8A8FF"/>
<path d="M51.2196 107.491C50.3494 107.491 49.479 107.159 48.8166 106.497C47.4915 105.172 47.4915 103.016 48.8166 101.691C50.1413 100.366 52.298 100.366 53.6227 101.691C54.9478 103.016 54.9478 105.172 53.6227 106.497C52.9603 107.16 52.0899 107.491 51.2196 107.491ZM51.2196 103.04C50.9496 103.04 50.6794 103.142 50.4736 103.348C50.0625 103.759 50.0625 104.428 50.4736 104.84C50.8852 105.251 51.5539 105.251 51.9654 104.84C52.3765 104.429 52.3765 103.76 51.9654 103.348C51.7599 103.143 51.4896 103.04 51.2196 103.04Z" fill="#A8A8FF"/>
<path d="M58.7763 21.9988C58.4765 21.9988 58.1763 21.8844 57.9478 21.6557L56.5497 20.2579L55.1517 21.6557C54.6944 22.1132 53.9519 22.1132 53.4947 21.6557C53.0369 21.1979 53.0369 20.4559 53.4947 19.9984L55.7212 17.7719C56.1785 17.3144 56.921 17.3144 57.3782 17.7719L59.6048 19.9984C60.0625 20.4561 60.0625 21.1982 59.6048 21.6557C59.3763 21.8842 59.0763 21.9988 58.7763 21.9988Z" fill="#FF7EB8"/>
<path d="M103.065 103.039C102.765 103.039 102.465 102.925 102.237 102.696L100.838 101.298L99.4404 102.696C98.9832 103.154 98.2407 103.154 97.7834 102.696C97.3257 102.239 97.3257 101.496 97.7834 101.039L100.01 98.8125C100.467 98.355 101.21 98.355 101.667 98.8125L103.894 101.039C104.351 101.497 104.351 102.239 103.894 102.696C103.665 102.925 103.365 103.039 103.065 103.039Z" fill="#FF7EB8"/>
<path d="M41.9258 104.153C41.6261 104.153 41.3258 104.038 41.0973 103.81L39.6993 102.412L38.3012 103.81C37.844 104.267 37.1015 104.267 36.6442 103.81C36.1865 103.352 36.1865 102.61 36.6442 102.152L38.8708 99.9257C39.328 99.4682 40.0705 99.4682 40.5278 99.9257L42.7543 102.152C43.2121 102.61 43.2121 103.352 42.7543 103.81C42.5256 104.038 42.2256 104.153 41.9258 104.153Z" fill="#6583FE"/>
<defs>
<linearGradient id="paint0_linear" x1="101.328" y1="117.646" x2="46.4844" y2="44.9904" gradientUnits="userSpaceOnUse">
<stop stop-color="#4B4B4B"/>
<stop offset="0.5834" stop-color="#393939"/>
<stop offset="0.997" stop-color="#8A8A8A"/>
</linearGradient>
</defs>
</svg>
